# Blender 3.4.1
# www.blender.org
mtllib star_particle.mtl
o Circle.003
v -0.312189 0.099448 -0.457552
v -0.247560 0.000000 -0.370477
v -0.505132 0.099448 0.136266
v -0.400505 0.000000 0.100202
v 0.000000 0.099448 0.602044
v 0.000000 0.000000 0.493102
v 0.505132 0.099448 0.136266
v 0.400505 0.000000 0.100202
v 0.247560 0.000000 -0.370477
v 0.312189 0.099448 -0.457552
v -0.176669 0.099448 -0.693026
v -0.095173 0.000000 -0.635259
v 0.095173 0.000000 -0.635259
v 0.176669 0.099448 -0.693026
v -0.037770 0.000000 -0.701904
v -0.095613 0.099448 -0.787133
v 0.000000 0.000000 -0.714958
v 0.000000 0.099448 -0.820179
v 0.037770 0.000000 -0.701904
v 0.095613 0.099448 -0.787133
v -0.574498 0.000000 -0.294465
v -0.606075 0.099448 -0.389224
v -0.700431 0.099448 -0.058752
v -0.623582 0.000000 -0.122554
v -0.719016 0.099448 -0.339480
v -0.654057 0.000000 -0.259424
v -0.776607 0.099448 -0.259208
v -0.675021 0.000000 -0.230203
v -0.770081 0.099448 -0.160630
v -0.672646 0.000000 -0.194319
v -0.444696 0.000000 0.459894
v -0.544596 0.099448 0.457478
v -0.247002 0.099448 0.712516
v -0.271987 0.000000 0.614749
v -0.535183 0.099448 0.584660
v -0.437870 0.000000 0.552133
v -0.475322 0.099448 0.677789
v -0.407769 0.000000 0.598964
v -0.374127 0.099448 0.722686
v -0.356882 0.000000 0.621540
v 0.271987 0.000000 0.614749
v 0.247002 0.099448 0.712516
v 0.544596 0.099448 0.457478
v 0.444696 0.000000 0.459894
v 0.374127 0.099448 0.722686
v 0.356882 0.000000 0.621540
v 0.475322 0.099448 0.677789
v 0.407769 0.000000 0.598964
v 0.535183 0.099448 0.584660
v 0.437870 0.000000 0.552133
v 0.623582 0.000000 -0.122554
v 0.700431 0.099448 -0.058752
v 0.606075 0.099448 -0.389224
v 0.574498 0.000000 -0.294465
v 0.770081 0.099448 -0.160630
v 0.672646 0.000000 -0.194319
v 0.776607 0.099448 -0.259208
v 0.675021 0.000000 -0.230203
v 0.719016 0.099448 -0.339480
v 0.654057 0.000000 -0.259424
v -0.247560 0.364749 -0.370477
v -0.312189 0.265301 -0.457552
v -0.400505 0.364749 0.100202
v -0.505132 0.265301 0.136266
v 0.000000 0.364749 0.493102
v 0.000000 0.265301 0.602044
v 0.400505 0.364749 0.100202
v 0.505132 0.265301 0.136266
v 0.312189 0.265301 -0.457552
v 0.247560 0.364749 -0.370477
v -0.095173 0.364749 -0.635259
v -0.176669 0.265301 -0.693026
v 0.176669 0.265301 -0.693026
v 0.095173 0.364749 -0.635259
v -0.095613 0.265301 -0.787133
v -0.037770 0.364749 -0.701904
v 0.000000 0.265301 -0.820179
v -0.000000 0.364749 -0.714958
v 0.095613 0.265301 -0.787133
v 0.037770 0.364749 -0.701904
v -0.606075 0.265301 -0.389224
v -0.574498 0.364749 -0.294465
v -0.623582 0.364749 -0.122554
v -0.700431 0.265301 -0.058752
v -0.654057 0.364749 -0.259424
v -0.719016 0.265301 -0.339480
v -0.675021 0.364749 -0.230203
v -0.776607 0.265301 -0.259208
v -0.672646 0.364749 -0.194319
v -0.770081 0.265301 -0.160630
v -0.544596 0.265301 0.457478
v -0.444696 0.364749 0.459894
v -0.271987 0.364749 0.614749
v -0.247002 0.265301 0.712516
v -0.437870 0.364749 0.552133
v -0.535183 0.265301 0.584660
v -0.407769 0.364749 0.598964
v -0.475322 0.265301 0.677789
v -0.356882 0.364749 0.621540
v -0.374127 0.265301 0.722686
v 0.247002 0.265301 0.712516
v 0.271987 0.364749 0.614749
v 0.444696 0.364749 0.459894
v 0.544596 0.265301 0.457478
v 0.356882 0.364749 0.621540
v 0.374127 0.265301 0.722686
v 0.407769 0.364749 0.598964
v 0.475322 0.265301 0.677789
v 0.437870 0.364749 0.552133
v 0.535183 0.265301 0.584660
v 0.700431 0.265301 -0.058752
v 0.623582 0.364749 -0.122554
v 0.574498 0.364749 -0.294465
v 0.606075 0.265301 -0.389224
v 0.672646 0.364749 -0.194319
v 0.770081 0.265301 -0.160630
v 0.675021 0.364749 -0.230203
v 0.776607 0.265301 -0.259208
v 0.654057 0.364749 -0.259424
v 0.719016 0.265301 -0.339480
vn -0.7560 0.3758 -0.5359
vn -0.5219 0.3692 -0.7690
vn -0.5219 -0.3692 -0.7690
vn -0.7560 -0.3758 -0.5359
vn -0.5335 0.4459 -0.7187
vn -0.5335 -0.4459 -0.7187
vn -0.2930 0.3759 -0.8792
vn -0.2930 -0.3759 -0.8792
vn -0.5856 0.3692 -0.7217
vn -0.5856 -0.3692 -0.7217
vn -0.2392 -0.9048 -0.3524
vn -0.0000 -0.9014 -0.4331
vn 0.2392 -0.9048 -0.3524
vn 0.3271 -0.9161 -0.2318
vn 0.2216 -0.9283 -0.2985
vn 0.1267 -0.9162 -0.3801
vn 0.2686 -0.9046 -0.3310
vn 0.4174 -0.9009 -0.1192
vn 0.4029 -0.9046 0.1393
vn 0.3083 -0.9162 0.2560
vn 0.3473 -0.9301 0.1197
vn 0.4014 -0.9158 -0.0097
vn 0.4023 -0.9056 0.1345
vn 0.2792 -0.9033 0.3257
vn 0.0713 -0.9056 0.4181
vn -0.1024 -0.9105 0.4005
vn -0.0000 -0.9287 0.3708
vn 0.1024 -0.9105 0.4005
vn -0.0713 -0.9056 0.4181
vn -0.2792 -0.9033 0.3257
vn -0.4023 -0.9056 0.1345
vn -0.4014 -0.9158 -0.0097
vn -0.3473 -0.9301 0.1197
vn -0.3083 -0.9162 0.2560
vn -0.4029 -0.9046 0.1393
vn -0.4174 -0.9009 -0.1192
vn -0.2686 -0.9046 -0.3310
vn -0.1267 -0.9162 -0.3801
vn -0.2216 -0.9283 -0.2985
vn -0.3271 -0.9161 -0.2318
vn -0.8939 0.3685 -0.2552
vn -0.8939 -0.3685 -0.2552
vn -0.8783 0.3692 0.3037
vn -0.8783 -0.3692 0.3037
vn -0.7130 0.3759 0.5919
vn -0.7130 -0.3759 0.5919
vn -0.8410 0.4568 0.2899
vn -0.8410 -0.4568 0.2899
vn -0.9265 0.3756 -0.0224
vn -0.9265 -0.3756 -0.0224
vn -0.8813 0.3695 0.2946
vn -0.8813 -0.3695 0.2946
vn -0.6049 0.3688 0.7058
vn -0.6049 -0.3688 0.7058
vn -0.1562 0.3695 0.9160
vn -0.1562 -0.3695 0.9160
vn 0.2298 0.3719 0.8994
vn 0.2298 -0.3719 0.8994
vn -0.0000 0.4484 0.8938
vn -0.0000 -0.4484 0.8938
vn -0.2298 0.3719 0.8994
vn -0.2298 -0.3719 0.8994
vn 0.1562 0.3695 0.9160
vn 0.1562 -0.3695 0.9160
vn 0.6049 0.3688 0.7058
vn 0.6049 -0.3688 0.7058
vn 0.8813 0.3695 0.2946
vn 0.8813 -0.3695 0.2946
vn 0.9265 0.3756 -0.0224
vn 0.9265 -0.3756 -0.0224
vn 0.8410 0.4568 0.2899
vn 0.8410 -0.4568 0.2899
vn 0.7130 0.3759 0.5919
vn 0.7130 -0.3759 0.5919
vn 0.8783 0.3692 0.3037
vn 0.8783 -0.3692 0.3037
vn 0.8939 0.3685 -0.2552
vn 0.8939 -0.3685 -0.2552
vn 0.5856 0.3692 -0.7217
vn 0.5856 -0.3692 -0.7217
vn 0.2930 0.3759 -0.8792
vn 0.2930 -0.3759 -0.8792
vn 0.5335 0.4459 -0.7187
vn 0.5335 -0.4459 -0.7187
vn 0.7560 0.3758 -0.5359
vn 0.7560 -0.3758 -0.5359
vn 0.5219 0.3692 -0.7690
vn 0.5219 -0.3692 -0.7690
vn -0.0000 0.3685 -0.9296
vn -0.0000 -0.3685 -0.9296
vn -0.2392 0.9048 -0.3524
vn -0.3271 0.9161 -0.2318
vn -0.2216 0.9283 -0.2985
vn -0.1267 0.9162 -0.3801
vn -0.2686 0.9046 -0.3310
vn -0.4174 0.9009 -0.1192
vn -0.4029 0.9046 0.1393
vn -0.3083 0.9162 0.2560
vn -0.3473 0.9301 0.1197
vn -0.4014 0.9158 -0.0097
vn -0.4023 0.9056 0.1345
vn -0.2792 0.9033 0.3257
vn -0.0713 0.9056 0.4181
vn 0.1024 0.9105 0.4005
vn -0.0000 0.9287 0.3708
vn -0.1024 0.9105 0.4005
vn 0.0713 0.9056 0.4181
vn 0.2792 0.9033 0.3257
vn 0.4023 0.9056 0.1345
vn 0.4014 0.9158 -0.0097
vn 0.3473 0.9301 0.1197
vn 0.3083 0.9162 0.2560
vn 0.4029 0.9046 0.1393
vn 0.4174 0.9009 -0.1192
vn 0.2686 0.9046 -0.3310
vn 0.1267 0.9162 -0.3801
vn 0.2216 0.9283 -0.2985
vn 0.3271 0.9161 -0.2318
vn 0.2392 0.9048 -0.3524
vn -0.0000 0.9014 -0.4331
vt 0.000000 0.000000
vt 0.000000 0.000000
vt 0.000000 0.000000
vt 0.000000 0.000000
vt 0.000000 0.000000
vt 0.000000 0.000000
vt 0.000000 0.000000
vt 0.000000 0.000000
vt 0.000000 0.000000
vt 0.000000 0.000000
vt 0.000000 0.000000
vt 0.000000 0.000000
vt 0.000000 0.000000
vt 0.000000 0.000000
vt 0.000000 0.000000
vt 0.000000 0.000000
vt 0.000000 0.000000
vt 0.000000 0.000000
vt 0.000000 0.000000
vt 0.000000 0.000000
vt 0.000000 0.000000
vt 0.000000 0.000000
vt 0.000000 0.000000
vt 0.000000 0.000000
vt 0.000000 0.000000
vt 0.000000 0.000000
vt 0.000000 0.000000
vt 0.000000 0.000000
vt 0.000000 0.000000
vt 0.000000 0.000000
vt 0.000000 0.000000
vt 0.000000 0.000000
vt 0.000000 0.000000
vt 0.000000 0.000000
vt 0.000000 0.000000
vt 0.000000 0.000000
vt 0.000000 0.000000
vt 0.000000 0.000000
vt 0.000000 0.000000
vt 0.000000 0.000000
vt 0.000000 0.000000
vt 0.000000 0.000000
vt 0.000000 0.000000
vt 0.000000 0.000000
vt 0.000000 0.000000
vt 0.000000 0.000000
vt 0.000000 0.000000
vt 0.000000 0.000000
vt 0.000000 0.000000
vt 0.000000 0.000000
vt 0.000000 0.000000
vt 0.000000 0.000000
vt 0.000000 0.000000
vt 0.000000 0.000000
vt 0.000000 0.000000
vt 0.000000 0.000000
vt 0.000000 0.000000
vt 0.000000 0.000000
vt 0.000000 0.000000
vt 0.000000 0.000000
vt 0.000000 0.000000
vt 0.000000 0.000000
vt 0.000000 0.000000
vt 0.000000 0.000000
vt 0.000000 0.000000
vt 0.000000 0.000000
vt 0.000000 0.000000
vt 0.000000 0.000000
vt 0.000000 0.000000
vt 0.000000 0.000000
vt 0.000000 0.000000
vt 0.000000 0.000000
vt 0.000000 0.000000
vt 0.000000 0.000000
vt 0.000000 0.000000
vt 0.000000 0.000000
vt 0.000000 0.000000
vt 0.000000 0.000000
vt 0.000000 0.000000
vt 0.000000 0.000000
vt 0.000000 0.000000
vt 0.000000 0.000000
vt 0.000000 0.000000
vt 0.000000 0.000000
vt 0.000000 0.000000
vt 0.000000 0.000000
vt 0.000000 0.000000
vt 0.000000 0.000000
vt 0.000000 0.000000
vt 0.000000 0.000000
vt 0.000000 0.000000
vt 0.000000 0.000000
vt 0.000000 0.000000
vt 0.000000 0.000000
vt 0.000000 0.000000
vt 0.000000 0.000000
vt 0.000000 0.000000
vt 0.000000 0.000000
vt 0.000000 0.000000
vt 0.000000 0.000000
vt 0.000000 0.000000
vt 0.000000 0.000000
vt 0.000000 0.000000
vt 0.000000 0.000000
vt 0.000000 0.000000
vt 0.000000 0.000000
vt 0.000000 0.000000
vt 0.000000 0.000000
vt 0.000000 0.000000
vt 0.000000 0.000000
vt 0.000000 0.000000
vt 0.000000 0.000000
vt 0.000000 0.000000
vt 0.000000 0.000000
vt 0.000000 0.000000
vt 0.000000 0.000000
vt 0.000000 0.000000
vt 0.000000 0.000000
vt 0.000000 0.000000
vt 0.000000 0.000000
s 1
f 72/72/1 75/75/2 16/16/3 11/11/4
f 62/62/5 72/72/1 11/11/4 1/1/6
f 81/81/7 62/62/5 1/1/6 22/22/8
f 86/86/9 81/81/7 22/22/8 25/25/10
f 15/15/11 17/17/12 19/19/13 13/13/14 9/9/15 54/54/16 60/60/17 58/58/18 56/56/19 51/51/20 8/8/21 44/44/22 50/50/23 48/48/24 46/46/25 41/41/26 6/6/27 34/34/28 40/40/29 38/38/30 36/36/31 31/31/32 4/4/33 24/24/34 30/30/35 28/28/36 26/26/37 21/21/38 2/2/39 12/12/40
f 88/88/41 86/86/9 25/25/10 27/27/42
f 90/90/43 88/88/41 27/27/42 29/29/44
f 84/84/45 90/90/43 29/29/44 23/23/46
f 64/64/47 84/84/45 23/23/46 3/3/48
f 91/91/49 64/64/47 3/3/48 32/32/50
f 96/96/51 91/91/49 32/32/50 35/35/52
f 98/98/53 96/96/51 35/35/52 37/37/54
f 100/100/55 98/98/53 37/37/54 39/39/56
f 94/94/57 100/100/55 39/39/56 33/33/58
f 66/66/59 94/94/57 33/33/58 5/5/60
f 101/101/61 66/66/59 5/5/60 42/42/62
f 106/106/63 101/101/61 42/42/62 45/45/64
f 108/108/65 106/106/63 45/45/64 47/47/66
f 110/110/67 108/108/65 47/47/66 49/49/68
f 104/104/69 110/110/67 49/49/68 43/43/70
f 68/68/71 104/104/69 43/43/70 7/7/72
f 111/111/73 68/68/71 7/7/72 52/52/74
f 116/116/75 111/111/73 52/52/74 55/55/76
f 118/118/77 116/116/75 55/55/76 57/57/78
f 120/120/79 118/118/77 57/57/78 59/59/80
f 114/114/81 120/120/79 59/59/80 53/53/82
f 69/69/83 114/114/81 53/53/82 10/10/84
f 73/73/85 69/69/83 10/10/84 14/14/86
f 79/79/87 73/73/85 14/14/86 20/20/88
f 77/77/89 79/79/87 20/20/88 18/18/90
f 76/76/91 71/71/92 61/61/93 82/82/94 85/85/95 87/87/96 89/89/97 83/83/98 63/63/99 92/92/100 95/95/101 97/97/102 99/99/103 93/93/104 65/65/105 102/102/106 105/105/107 107/107/108 109/109/109 103/103/110 67/67/111 112/112/112 115/115/113 117/117/114 119/119/115 113/113/116 70/70/117 74/74/118 80/80/119 78/78/120
f 12/12/40 11/11/4 16/16/3 15/15/11
f 15/15/11 16/16/3 18/18/90 17/17/12
f 17/17/12 18/18/90 20/20/88 19/19/13
f 19/19/13 20/20/88 14/14/86 13/13/14
f 22/22/8 21/21/38 26/26/37 25/25/10
f 25/25/10 26/26/37 28/28/36 27/27/42
f 27/27/42 28/28/36 30/30/35 29/29/44
f 29/29/44 30/30/35 24/24/34 23/23/46
f 32/32/50 31/31/32 36/36/31 35/35/52
f 35/35/52 36/36/31 38/38/30 37/37/54
f 37/37/54 38/38/30 40/40/29 39/39/56
f 39/39/56 40/40/29 34/34/28 33/33/58
f 42/42/62 41/41/26 46/46/25 45/45/64
f 45/45/64 46/46/25 48/48/24 47/47/66
f 47/47/66 48/48/24 50/50/23 49/49/68
f 49/49/68 50/50/23 44/44/22 43/43/70
f 52/52/74 51/51/20 56/56/19 55/55/76
f 55/55/76 56/56/19 58/58/18 57/57/78
f 57/57/78 58/58/18 60/60/17 59/59/80
f 59/59/80 60/60/17 54/54/16 53/53/82
f 11/11/4 12/12/40 2/2/39 1/1/6
f 13/13/14 14/14/86 10/10/84 9/9/15
f 21/21/38 22/22/8 1/1/6 2/2/39
f 23/23/46 24/24/34 4/4/33 3/3/48
f 31/31/32 32/32/50 3/3/48 4/4/33
f 33/33/58 34/34/28 6/6/27 5/5/60
f 41/41/26 42/42/62 5/5/60 6/6/27
f 43/43/70 44/44/22 8/8/21 7/7/72
f 51/51/20 52/52/74 7/7/72 8/8/21
f 53/53/82 54/54/16 9/9/15 10/10/84
f 72/72/1 71/71/92 76/76/91 75/75/2
f 75/75/2 76/76/91 78/78/120 77/77/89
f 77/77/89 78/78/120 80/80/119 79/79/87
f 79/79/87 80/80/119 74/74/118 73/73/85
f 82/82/94 81/81/7 86/86/9 85/85/95
f 85/85/95 86/86/9 88/88/41 87/87/96
f 87/87/96 88/88/41 90/90/43 89/89/97
f 89/89/97 90/90/43 84/84/45 83/83/98
f 92/92/100 91/91/49 96/96/51 95/95/101
f 95/95/101 96/96/51 98/98/53 97/97/102
f 97/97/102 98/98/53 100/100/55 99/99/103
f 99/99/103 100/100/55 94/94/57 93/93/104
f 102/102/106 101/101/61 106/106/63 105/105/107
f 105/105/107 106/106/63 108/108/65 107/107/108
f 107/107/108 108/108/65 110/110/67 109/109/109
f 109/109/109 110/110/67 104/104/69 103/103/110
f 112/112/112 111/111/73 116/116/75 115/115/113
f 115/115/113 116/116/75 118/118/77 117/117/114
f 117/117/114 118/118/77 120/120/79 119/119/115
f 119/119/115 120/120/79 114/114/81 113/113/116
f 71/71/92 72/72/1 62/62/5 61/61/93
f 73/73/85 74/74/118 70/70/117 69/69/83
f 81/81/7 82/82/94 61/61/93 62/62/5
f 83/83/98 84/84/45 64/64/47 63/63/99
f 91/91/49 92/92/100 63/63/99 64/64/47
f 93/93/104 94/94/57 66/66/59 65/65/105
f 101/101/61 102/102/106 65/65/105 66/66/59
f 103/103/110 104/104/69 68/68/71 67/67/111
f 111/111/73 112/112/112 67/67/111 68/68/71
f 113/113/116 114/114/81 69/69/83 70/70/117
f 75/75/2 77/77/89 18/18/90 16/16/3
